<?xml version="1.0" standalone="no"?>
<!DOCTYPE svg PUBLIC "-//W3C//DTD SVG 20010904//EN"
 "http://www.w3.org/TR/2001/REC-SVG-20010904/DTD/svg10.dtd">
<svg version="1.0" xmlns="http://www.w3.org/2000/svg"
 width="75.000000pt" height="50.000000pt" viewBox="0 0 75.000000 50.000000"
 preserveAspectRatio="xMidYMid meet">
<metadata>
Created by potrace 1.10, written by Peter Selinger 2001-2011
</metadata>
<g transform="translate(0.000000,50.000000) scale(0.100000,-0.100000)"
fill="#000000" stroke="none">
<path d="M20 471 c-6 -12 -10 -102 -10 -225 0 -173 2 -207 16 -220 13 -14 59
-16 353 -16 249 0 340 3 349 12 17 17 17 439 0 456 -9 9 -101 12 -355 12 -328
0 -343 -1 -353 -19z m689 -5 c8 -9 11 -77 9 -222 l-3 -209 -340 0 -340 0 -3
209 c-2 145 1 213 9 222 17 21 651 21 668 0z"/>
<path d="M550 441 c0 -8 -13 -9 -40 -5 -37 6 -43 4 -77 -32 -20 -22 -34 -31
-30 -21 8 21 6 21 -38 0 -19 -9 -35 -22 -35 -29 0 -14 -27 -27 -32 -15 -5 15
-67 0 -71 -18 -4 -14 -5 -14 -6 2 -1 11 -9 17 -25 17 -13 0 -40 11 -60 25 -43
29 -47 30 -40 10 4 -9 0 -15 -10 -15 -21 0 -22 -53 -1 -70 11 -10 15 -36 15
-111 l0 -99 35 -17 c19 -9 37 -14 40 -12 2 3 8 48 13 100 l9 94 2 -97 1 -98
28 0 c16 0 32 3 36 7 4 5 11 8 15 8 4 0 53 22 109 48 124 60 164 67 221 37 64
-32 71 -22 71 116 0 110 -1 115 -27 144 -29 32 -103 54 -103 31z m85 -61 c29
-30 30 -33 30 -125 0 -51 -3 -97 -7 -101 -4 -3 -23 1 -42 10 -19 9 -45 16 -59
16 l-25 0 2 121 1 121 35 -6 c19 -3 47 -19 65 -36z m-127 18 c24 -24 14 -67
-46 -191 -2 -4 8 -3 23 3 34 13 35 13 35 -8 0 -12 -16 -23 -52 -37 -29 -11
-56 -21 -60 -23 -16 -7 -7 26 27 107 35 84 43 121 25 121 -5 0 -10 -13 -10
-28 0 -21 -7 -32 -25 -40 -24 -11 -25 -10 -25 19 0 20 10 40 29 60 31 31 59
37 79 17z m-140 -280 l-23 -17 -5 77 -5 77 -9 -82 c-6 -59 -12 -83 -23 -88
-22 -8 -22 -7 -30 66 l-8 64 -5 -75 c-5 -68 -7 -75 -27 -78 -23 -3 -23 -2 -23
117 0 109 2 121 18 121 9 0 27 3 40 6 20 6 22 3 22 -40 0 -25 5 -46 10 -46 6
0 10 22 10 50 0 47 2 51 38 73 l37 24 3 -116 c3 -110 2 -116 -20 -133z m-191
182 c18 0 23 -6 23 -25 0 -16 -6 -25 -15 -25 -12 0 -15 -17 -15 -95 l0 -95
-25 12 c-24 11 -25 14 -25 108 0 84 -3 99 -20 115 -11 10 -20 27 -20 37 0 17
3 17 37 -7 21 -14 48 -25 60 -25z m244 -51 l-20 -44 0 34 c-1 21 5 39 16 47
25 18 26 13 4 -37z m102 31 c-3 -11 -9 -20 -15 -20 -5 0 -4 9 2 20 6 11 12 20
14 20 2 0 2 -9 -1 -20z"/>
<path d="M590 291 c0 -47 4 -81 10 -81 6 0 10 31 10 74 0 41 -4 78 -10 81 -6
4 -10 -23 -10 -74z"/>
</g>
</svg>
